<svg width="496" height="464" viewBox="0 0 496 464" fill="none" xmlns="http://www.w3.org/2000/svg">
    <defs>
        <style type="text/css"><![CDATA[
            #butterfly {                      
                animation: move 20s linear infinite;
                transform-origin: 75% 25%;
            }
            @keyframes move {
                
                0% { transform: rotate(0deg); }
                100% { transform: rotate(359deg); }
            }           

            #left-wing {
                transform-origin: 55% 25%;
	            animation: ani-left-wing 1.5s ease infinite;
            }
            @keyframes ani-left-wing {
                
                50% {transform: scale(0.85, 0.85);}
                100% {transform: scale(1, 1);;}
            }
            
            #right-wing {
                transform-origin: 55% 25%;
	            animation: ani-right-wing 1.5s ease infinite;
            }
            @keyframes ani-right-wing {
                
                50% {transform: scale(0.85, 0.85);}
                100% {transform: scale(1, 1);;}
            }

            #plant-1 {
                animation: sway1 6s infinite;
                transform-origin: 5% 100% 0;
            }
            @keyframes sway1 {
                0%, 100%{ transform: rotate(-3deg);}
                50%{ transform: rotate(4deg); }
            }
            #plant-2 {
                animation: sway2 8s infinite;
                transform-origin: 5% 100% 0;
            }
            @keyframes sway2 {
                0%, 100%{ transform: rotate(3deg);}
                50%{ transform: rotate(-2deg); }
            }
            #plant-3 {
                animation: sway1 7s infinite;
                transform-origin: 5% 100% 0;
            }
            @keyframes sway3 {
                0%, 100%{ transform: rotate(-4deg);}
                50%{ transform: rotate(2deg); }
            }

        ]]></style>
    </defs>
<g id="Group 25">
<path id="Vector" d="M231.86 463.72C359.913 463.72 463.72 359.913 463.72 231.86C463.72 103.807 359.913 0 231.86 0C103.807 0 0 103.807 0 231.86C0 359.913 103.807 463.72 231.86 463.72Z" fill="#E6E6FA"/>
<path id="Vector_2" d="M74.7099 460.83C91.7093 460.83 105.49 447.049 105.49 430.05C105.49 413.051 91.7093 399.27 74.7099 399.27C57.7106 399.27 43.9299 413.051 43.9299 430.05C43.9299 447.049 57.7106 460.83 74.7099 460.83Z" fill="black" stroke="black" stroke-miterlimit="10"/>
<path id="Vector_3" d="M99.13 399.27H50.29V404.44H99.13V399.27Z" fill="black" stroke="black" stroke-width="2" stroke-miterlimit="10"/>
<path id="Vector_4" d="M17.88 460.83H495.77" stroke="black" stroke-width="2" stroke-miterlimit="10"/>
<path id="Vector_5" d="M444.88 284.34H372.42V380.45H444.88V284.34Z" fill="white" stroke="black" stroke-miterlimit="10"/>
<path id="Vector_6" d="M440.89 380.45H434.67V460.83H440.89V380.45Z" fill="white" stroke="black" stroke-miterlimit="10"/>
<path id="Vector_7" d="M434.66 380.45H428.44V460.83H434.66V380.45Z" fill="#B3B3B3" stroke="black" stroke-miterlimit="10"/>
<path id="Vector_8" d="M378.64 380.45H372.42V460.83H378.64V380.45Z" fill="white" stroke="black" stroke-miterlimit="10"/>
<path id="Vector_9" d="M372.41 380.45H366.19V460.83H372.41V380.45Z" fill="#B3B3B3" stroke="black" stroke-miterlimit="10"/>
<path id="Vector_10" d="M372.41 284.34H316.39V380.45H372.41V284.34Z" fill="#B3B3B3" stroke="black" stroke-miterlimit="10"/>
<path id="Vector_11" d="M369.3 320.19H321.87V343.6H369.3V320.19Z" fill="#F2F2F2" stroke="black" stroke-miterlimit="10"/>
<path id="Vector_12" d="M369.3 289.55H321.87V310.47H369.3V289.55Z" fill="#F2F2F2" stroke="black" stroke-miterlimit="10"/>
<path id="Vector_13" d="M368.12 350.32H320.69V374.47H368.12V350.32Z" fill="#F2F2F2" stroke="black" stroke-miterlimit="10"/>
<path id="Vector_14" d="M452.55 278.16H381.14V284.34H452.55V278.16Z" fill="white" stroke="black" stroke-miterlimit="10"/>
<path id="Vector_15" d="M380.12 278.16H239.35V284.34H380.12V278.16Z" fill="#B3B3B3" stroke="black" stroke-miterlimit="10"/>
<path id="Vector_16" d="M351.62 298.67H337.19V301.33H351.62V298.67Z" fill="black" stroke="black" stroke-width="2" stroke-miterlimit="10"/>
<path id="Vector_17" d="M351.62 329.06H337.19V331.72H351.62V329.06Z" fill="black" stroke="black" stroke-width="2" stroke-miterlimit="10"/>
<path id="Vector_18" d="M351.62 359.74H337.19V362.4H351.62V359.74Z" fill="black" stroke="black" stroke-width="2" stroke-miterlimit="10"/>
<path id="Vector_19" d="M431.56 22.61H239.35V278.01H431.56V22.61Z" stroke="black" stroke-width="0.75" stroke-miterlimit="10"/>
<path id="Vector_20" d="M335.45 22.61L337.19 278.02" stroke="black" stroke-width="0.75" stroke-miterlimit="10"/>
<path id="Vector_21" d="M239.35 89.1899L431.55 89.7599" stroke="black" stroke-width="0.75" stroke-miterlimit="10"/>
<path id="Vector_22" d="M239.15 156.35L431.35 156.93" stroke="black" stroke-width="0.75" stroke-miterlimit="10"/>
<path id="Vector_23" d="M238.95 220.35L431.16 220.92" stroke="black" stroke-width="0.75" stroke-miterlimit="10"/>
<g id="plant-3">
<path id="Vector_24" d="M100.62 245.66L84.77 406.58" stroke="black" stroke-width="2" stroke-miterlimit="10"/>
<path id="Vector_25" d="M92.11 266.36C93.59 264.64 91.11 260.53 90.52 259.5C88.9802 256.972 86.7443 254.94 84.08 253.65C82.23 252.65 79.3 251.15 77.85 252.33C76.62 253.33 77.1 255.76 77.25 256.53C77.72 258.91 79.15 260.41 81.11 262.43C82.89 264.26 84.24 265.64 86.54 266.43C87.21 266.65 90.8 267.87 92.11 266.36Z" fill="#D8FFC6" stroke="black" stroke-miterlimit="10"/>
<g id="Vector_26">
<path d="M82.6 256.44C85.7666 259.773 88.9333 263.08 92.1 266.36L82.6 256.44Z" fill="#D8FFC6"/>
<path d="M82.6 256.44C85.7666 259.773 88.9333 263.08 92.1 266.36" stroke="black" stroke-width="0.75" stroke-miterlimit="10"/>
</g>
<path id="Vector_27" d="M91.45 265.79L98.18 274.1" stroke="black" stroke-miterlimit="10"/>
<path id="Vector_28" d="M89.27 299.81C90.76 298.1 88.27 293.98 87.69 292.95C86.1476 290.424 83.9124 288.393 81.25 287.1C79.4 286.1 76.46 284.6 75.01 285.78C73.79 286.78 74.26 289.21 74.41 289.98C74.88 292.36 76.31 293.87 78.28 295.88C80.06 297.71 81.41 299.09 83.7 299.88C84.38 300.1 87.97 301.32 89.27 299.81Z" fill="#D8FFC6" stroke="black" stroke-miterlimit="10"/>
<g id="Vector_29">
<path d="M79.78 289.89L89.27 299.81L79.78 289.89Z" fill="#D8FFC6"/>
<path d="M79.78 289.89L89.27 299.81" stroke="black" stroke-width="0.75" stroke-miterlimit="10"/>
</g>
<path id="Vector_30" d="M88.62 299.24L95.35 307.55" stroke="black" stroke-miterlimit="10"/>
<path id="Vector_31" d="M83.66 355.8C85.14 354.08 82.6601 349.97 82.0701 348.94C80.5303 346.412 78.2944 344.38 75.63 343.09C73.78 342.09 70.85 340.59 69.4 341.77C68.17 342.77 68.65 345.2 68.8 345.97C69.27 348.35 70.69 349.85 72.66 351.87C74.44 353.69 75.79 355.08 78.09 355.87C78.77 356.09 82.36 357.31 83.66 355.8Z" fill="#D8FFC6" stroke="black" stroke-miterlimit="10"/>
<g id="Vector_32">
<path d="M74.16 345.88L83.66 355.8L74.16 345.88Z" fill="#D8FFC6"/>
<path d="M74.16 345.88L83.66 355.8" stroke="black" stroke-width="0.75" stroke-miterlimit="10"/>
</g>
<path id="Vector_33" d="M83 355.23L89.73 363.54" stroke="black" stroke-miterlimit="10"/>
<path id="Vector_34" d="M101.29 244.64C100.07 242.73 103.08 239 103.84 238.07C105.724 235.788 108.223 234.095 111.04 233.19C113.04 232.5 116.13 231.39 117.4 232.77C118.47 233.93 117.66 236.27 117.4 237.01C116.6 239.3 114.97 240.59 112.74 242.3C110.74 243.86 109.18 245.04 106.8 245.48C106.11 245.62 102.37 246.32 101.29 244.64Z" fill="#D8FFC6" stroke="black" stroke-miterlimit="10"/>
<g id="Vector_35">
<path d="M112.11 236.17L101.3 244.65L112.11 236.17Z" fill="#D8FFC6"/>
<path d="M112.11 236.17L101.3 244.65" stroke="black" stroke-width="0.75" stroke-miterlimit="10"/>
</g>
<path id="Vector_36" d="M100.8 246.17C102.75 245.02 101.73 240.34 101.48 239.17C100.818 236.286 99.3435 233.651 97.23 231.58C95.79 230.07 93.5 227.69 91.75 228.34C90.26 228.9 89.94 231.34 89.84 232.13C89.52 234.54 90.4 236.42 91.62 238.96C92.73 241.25 93.62 242.96 95.49 244.46C96.11 244.85 99.11 247.17 100.8 246.17Z" fill="#D8FFC6" stroke="black" stroke-miterlimit="10"/>
<g id="Vector_37">
<path d="M94.95 233.7L100.8 246.17L94.95 233.7Z" fill="#D8FFC6"/>
<path d="M94.95 233.7L100.8 246.17" stroke="black" stroke-width="0.75" stroke-miterlimit="10"/>
</g>
<path id="Vector_38" d="M104.7 261.69C103.48 259.78 106.49 256.06 107.25 255.13C109.134 252.848 111.633 251.155 114.45 250.25C116.45 249.56 119.54 248.45 120.81 249.83C121.88 250.99 121.07 253.33 120.81 254.07C120.01 256.36 118.38 257.65 116.15 259.36C114.15 260.92 112.59 262.1 110.21 262.54C109.5 262.68 105.78 263.37 104.7 261.69Z" fill="#D8FFC6" stroke="black" stroke-miterlimit="10"/>
<g id="Vector_39">
<path d="M115.51 253.22L104.7 261.69L115.51 253.22Z" fill="#D8FFC6"/>
<path d="M115.51 253.22L104.7 261.69" stroke="black" stroke-width="0.75" stroke-miterlimit="10"/>
</g>
<path id="Vector_40" d="M105.43 261.22L97.59 268.5" stroke="black" stroke-miterlimit="10"/>
<path id="Vector_41" d="M102.9 294.89C101.68 292.98 104.69 289.26 105.45 288.32C107.334 286.04 109.833 284.35 112.65 283.45C114.65 282.75 117.74 281.65 119.01 283.03C120.08 284.19 119.27 286.53 119.01 287.26C118.21 289.56 116.58 290.84 114.35 292.56C112.35 294.11 110.79 295.29 108.41 295.74C107.7 295.87 103.98 296.57 102.9 294.89Z" fill="#D8FFC6" stroke="black" stroke-miterlimit="10"/>
<g id="Vector_42">
<path d="M113.71 286.42L102.9 294.89L113.71 286.42Z" fill="#D8FFC6"/>
<path d="M113.71 286.42L102.9 294.89" stroke="black" stroke-width="0.75" stroke-miterlimit="10"/>
</g>
<path id="Vector_43" d="M103.63 294.42L95.79 301.69" stroke="black" stroke-miterlimit="10"/>
<path id="Vector_44" d="M98.87 321.06C97.64 319.15 100.65 315.43 101.41 314.49C103.295 312.207 105.798 310.517 108.62 309.62C110.62 308.92 113.71 307.82 114.97 309.2C116.05 310.36 115.23 312.7 114.97 313.44C114.17 315.73 112.55 317.01 110.31 318.73C108.31 320.29 106.76 321.46 104.38 321.91C103.67 322.04 99.94 322.74 98.87 321.06Z" fill="#D8FFC6" stroke="black" stroke-miterlimit="10"/>
<g id="Vector_45">
<path d="M109.68 312.59L98.87 321.06L109.68 312.59Z" fill="#D8FFC6"/>
<path d="M109.68 312.59L98.87 321.06" stroke="black" stroke-width="0.75" stroke-miterlimit="10"/>
</g>
<path id="Vector_46" d="M99.6 320.59L91.75 327.86" stroke="black" stroke-miterlimit="10"/>
<path id="Vector_47" d="M94.11 375C92.89 373.09 95.9 369.36 96.66 368.43C98.5439 366.148 101.043 364.455 103.86 363.55C105.86 362.86 108.95 361.75 110.22 363.13C111.29 364.29 110.48 366.63 110.22 367.37C109.42 369.66 107.79 370.95 105.56 372.67C103.56 374.22 102 375.4 99.62 375.84C98.9 375.98 95.18 376.68 94.11 375Z" fill="#D8FFC6" stroke="black" stroke-miterlimit="10"/>
<g id="Vector_48">
<path d="M104.91 366.52L94.11 375L104.91 366.52Z" fill="#D8FFC6"/>
<path d="M104.91 366.52L94.11 375" stroke="black" stroke-width="0.75" stroke-miterlimit="10"/>
</g>
<path id="Vector_49" d="M94.83 374.52L86.99 381.8" stroke="black" stroke-miterlimit="10"/>
<path id="Vector_50" d="M80.3 385.39C81.78 383.67 79.3 379.56 78.72 378.53C77.1745 376.003 74.9358 373.972 72.27 372.68C70.42 371.68 67.49 370.18 66.04 371.36C64.82 372.36 65.29 374.79 65.44 375.56C65.91 377.94 67.34 379.44 69.3 381.46C71.08 383.28 72.43 384.67 74.73 385.46C75.41 385.68 79 386.9 80.3 385.39Z" fill="#D8FFC6" stroke="black" stroke-miterlimit="10"/>
<g id="Vector_51">
<path d="M70.8101 375.47L80.3001 385.39L70.8101 375.47Z" fill="#D8FFC6"/>
<path d="M70.8101 375.47L80.3001 385.39" stroke="black" stroke-width="0.75" stroke-miterlimit="10"/>
</g>
<path id="Vector_52" d="M79.65 384.81L86.38 393.13" stroke="black" stroke-miterlimit="10"/>
<path id="Vector_53" d="M85.91 334.78C87.39 333.06 84.9101 328.95 84.3201 327.92C82.7803 325.392 80.5444 323.36 77.88 322.07C76.03 321.07 73.1 319.57 71.65 320.75C70.42 321.75 70.9 324.18 71.05 324.95C71.52 327.33 72.94 328.83 74.91 330.85C76.69 332.67 78.04 334.06 80.34 334.85C81.02 335.07 84.61 336.29 85.91 334.78Z" fill="#D8FFC6" stroke="black" stroke-miterlimit="10"/>
<g id="Vector_54">
<path d="M76.41 324.86L85.91 334.78L76.41 324.86Z" fill="#D8FFC6"/>
<path d="M76.41 324.86L85.91 334.78" stroke="black" stroke-width="0.75" stroke-miterlimit="10"/>
</g>
<path id="Vector_55" d="M85.25 334.21L91.98 342.52" stroke="black" stroke-miterlimit="10"/>
</g>
<g id="plant-2">
<path id="Vector_56" d="M73.8083 176.553V405.743" stroke="black" stroke-width="2" stroke-miterlimit="10"/>
<path id="Vector_57" d="M74.0984 175.443C72.8684 173.533 75.8783 169.813 76.6383 168.873C78.5236 166.59 81.0269 164.899 83.8484 164.003C85.8484 163.303 88.9384 162.203 90.1984 163.583C91.2684 164.743 90.4584 167.083 90.1984 167.813C89.3984 170.113 87.7784 171.393 85.5384 173.113C83.5384 174.663 81.9884 175.843 79.6084 176.293C78.8984 176.423 75.1684 177.123 74.0984 175.443Z" fill="#D8FFC6" stroke="black" stroke-miterlimit="10"/>
<g id="Vector_58">
<path d="M84.8984 166.973L74.0984 175.443L84.8984 166.973Z" fill="#D8FFC6"/>
<path d="M84.8984 166.973L74.0984 175.443" stroke="black" stroke-width="0.75" stroke-miterlimit="10"/>
</g>
<path id="Vector_59" d="M80.2885 192.023C79.0685 190.103 82.0685 186.383 82.8285 185.453C84.714 183.168 87.2168 181.474 90.0385 180.573C92.0385 179.883 95.1285 178.773 96.3885 180.153C97.4685 181.313 96.6485 183.653 96.3885 184.393C95.5885 186.683 93.9685 187.973 91.7285 189.683C89.7285 191.243 88.1785 192.423 85.7985 192.863C85.0885 193.003 81.3585 193.703 80.2885 192.023Z" fill="#D8FFC6" stroke="black" stroke-miterlimit="10"/>
<g id="Vector_60">
<path d="M91.0984 183.543C87.4851 186.363 83.8818 189.189 80.2885 192.023L91.0984 183.543Z" fill="#D8FFC6"/>
<path d="M91.0984 183.543C87.4851 186.363 83.8818 189.189 80.2885 192.023" stroke="black" stroke-width="0.75" stroke-miterlimit="10"/>
</g>
<path id="Vector_61" d="M81.0185 191.543L73.1685 198.823" stroke="black" stroke-miterlimit="10"/>
<path id="Vector_62" d="M80.9284 226.623C79.6984 224.713 82.7084 220.993 83.4684 220.053C85.3521 217.773 87.8513 216.083 90.6684 215.183C92.6684 214.483 95.7584 213.383 97.0284 214.763C98.0984 215.923 97.2884 218.253 97.0284 218.993C96.2284 221.293 94.5984 222.573 92.3684 224.293C90.3684 225.843 88.8184 227.023 86.4384 227.473C85.7284 227.603 81.9984 228.303 80.9284 226.623Z" fill="#D8FFC6" stroke="black" stroke-miterlimit="10"/>
<g id="Vector_63">
<path d="M91.7285 218.153L80.9285 226.623L91.7285 218.153Z" fill="#D8FFC6"/>
<path d="M91.7285 218.153L80.9285 226.623" stroke="black" stroke-width="0.75" stroke-miterlimit="10"/>
</g>
<path id="Vector_64" d="M81.6483 226.153L73.8083 233.423" stroke="black" stroke-miterlimit="10"/>
<path id="Vector_65" d="M80.2885 272.063C79.0685 270.153 82.0685 266.423 82.8285 265.493C84.714 263.208 87.2168 261.514 90.0385 260.613C92.0385 259.923 95.1285 258.813 96.3885 260.193C97.4685 261.353 96.6485 263.693 96.3885 264.433C95.5885 266.723 93.9685 268.013 91.7285 269.723C89.7285 271.283 88.1785 272.463 85.7985 272.903C85.0885 273.043 81.3585 273.773 80.2885 272.063Z" fill="#D8FFC6" stroke="black" stroke-miterlimit="10"/>
<g id="Vector_66">
<path d="M91.0984 263.583L80.2885 272.063L91.0984 263.583Z" fill="#D8FFC6"/>
<path d="M91.0984 263.583L80.2885 272.063" stroke="black" stroke-width="0.75" stroke-miterlimit="10"/>
</g>
<path id="Vector_67" d="M81.0185 271.583L73.1685 278.863" stroke="black" stroke-miterlimit="10"/>
<path id="Vector_68" d="M73.5985 176.943C75.5485 175.793 74.5385 171.113 74.2785 169.943C73.6219 167.059 72.1501 164.424 70.0385 162.353C68.5885 160.843 66.2985 158.453 64.5485 159.113C63.0685 159.673 62.7485 162.113 62.6485 162.903C62.3285 165.313 63.1985 167.193 64.4285 169.733C65.5285 172.023 66.3685 173.733 68.2985 175.233C68.8685 175.663 71.8885 177.963 73.5985 176.943Z" fill="#D8FFC6" stroke="black" stroke-miterlimit="10"/>
<g id="Vector_69">
<path d="M67.7584 164.513C69.7051 168.659 71.6518 172.803 73.5984 176.943L67.7584 164.513Z" fill="#D8FFC6"/>
<path d="M67.7584 164.513C69.7051 168.659 71.6518 172.803 73.5984 176.943" stroke="black" stroke-width="0.75" stroke-miterlimit="10"/>
</g>
<path id="Vector_70" d="M68.2384 199.013C69.7184 197.293 67.2384 193.183 66.6584 192.153C65.1134 189.629 62.8789 187.599 60.2184 186.303C58.3584 185.303 55.4284 183.803 53.9784 184.983C52.7584 185.983 53.2284 188.413 53.3784 189.173C53.8484 191.563 55.2784 193.063 57.2484 195.083C59.0184 196.903 60.3784 198.293 62.6684 199.083C63.3184 199.303 66.9084 200.523 68.2384 199.013Z" fill="#D8FFC6" stroke="black" stroke-miterlimit="10"/>
<g id="Vector_71">
<path d="M58.7184 189.093L68.2084 199.013L58.7184 189.093Z" fill="#D8FFC6"/>
<path d="M58.7184 189.093L68.2084 199.013" stroke="black" stroke-width="0.75" stroke-miterlimit="10"/>
</g>
<path id="Vector_72" d="M67.5583 198.433L74.2884 206.753" stroke="black" stroke-miterlimit="10"/>
<path id="Vector_73" d="M68.2384 233.493C69.7184 231.773 67.2384 227.663 66.6584 226.623C65.1175 224.103 62.8906 222.073 60.2384 220.773C58.3784 219.773 55.4484 218.263 53.9984 219.453C52.7784 220.453 53.2484 222.873 53.3984 223.643C53.8684 226.033 55.2984 227.533 57.2684 229.553C59.0384 231.373 60.3984 232.753 62.6884 233.553C63.3184 233.773 66.9084 235.003 68.2384 233.493Z" fill="#D8FFC6" stroke="black" stroke-miterlimit="10"/>
<g id="Vector_74">
<path d="M58.7184 223.563L68.2084 233.493L58.7184 223.563Z" fill="#D8FFC6"/>
<path d="M58.7184 223.563L68.2084 233.493" stroke="black" stroke-width="0.75" stroke-miterlimit="10"/>
</g>
<path id="Vector_75" d="M67.5583 232.913L74.2884 241.233" stroke="black" stroke-miterlimit="10"/>
<path id="Vector_76" d="M67.0785 267.453C68.5585 265.733 66.0785 261.623 65.4885 260.593C63.9487 258.064 61.7128 256.033 59.0485 254.743C57.1985 253.743 54.2685 252.243 52.8185 253.423C51.5885 254.423 52.0685 256.853 52.2185 257.613C52.6885 260.003 54.1185 261.503 56.0785 263.523C57.8585 265.343 59.2085 266.733 61.5085 267.523C62.2385 267.773 65.7785 268.963 67.0785 267.453Z" fill="#D8FFC6" stroke="black" stroke-miterlimit="10"/>
<g id="Vector_77">
<path d="M57.5784 257.533C60.745 260.866 63.9117 264.173 67.0784 267.453L57.5784 257.533Z" fill="#D8FFC6"/>
<path d="M57.5784 257.533C60.745 260.866 63.9117 264.173 67.0784 267.453" stroke="black" stroke-width="0.75" stroke-miterlimit="10"/>
</g>
<path id="Vector_78" d="M66.4285 266.873L73.1585 275.193" stroke="black" stroke-miterlimit="10"/>
<path id="Vector_79" d="M68.2384 319.773C69.7184 318.053 67.2384 313.943 66.6584 312.913C65.1134 310.389 62.8789 308.359 60.2184 307.063C58.3584 306.063 55.4284 304.563 53.9784 305.743C52.7584 306.743 53.2284 309.173 53.3784 309.943C53.8484 312.323 55.2784 313.823 57.2484 315.843C59.0184 317.663 60.3784 319.053 62.6684 319.843C63.3184 320.093 66.9084 321.313 68.2384 319.773Z" fill="#D8FFC6" stroke="black" stroke-miterlimit="10"/>
<g id="Vector_80">
<path d="M58.7184 309.883L68.2384 319.773L58.7184 309.883Z" fill="#D8FFC6"/>
<path d="M58.7184 309.883L68.2384 319.773" stroke="black" stroke-width="0.75" stroke-miterlimit="10"/>
</g>
<path id="Vector_81" d="M67.9684 361.503C69.4484 359.793 66.9684 355.683 66.3784 354.643C64.8407 352.108 62.6048 350.07 59.9384 348.773C58.0884 347.773 55.1484 346.263 53.7084 347.443C52.4784 348.443 52.9484 350.873 53.0984 351.643C53.5684 354.023 54.9984 355.533 56.9684 357.553C58.7484 359.373 60.0984 360.753 62.3884 361.553C63.0684 361.773 66.6584 363.023 67.9684 361.503Z" fill="#D8FFC6" stroke="black" stroke-miterlimit="10"/>
<g id="Vector_82">
<path d="M58.4684 351.583C61.6284 354.916 64.7951 358.223 67.9684 361.503L58.4684 351.583Z" fill="#D8FFC6"/>
<path d="M58.4684 351.583C61.6284 354.916 64.7951 358.223 67.9684 361.503" stroke="black" stroke-width="0.75" stroke-miterlimit="10"/>
</g>
<path id="Vector_83" d="M67.3083 360.933L74.0384 369.253" stroke="black" stroke-miterlimit="10"/>
<path id="Vector_84" d="M80.9284 306.153C79.6984 304.243 82.7084 300.523 83.4684 299.593C85.3523 297.311 87.8511 295.617 90.6684 294.713C92.6684 294.023 95.7584 292.913 97.0284 294.293C98.0984 295.453 97.2884 297.793 97.0284 298.533C96.2284 300.823 94.5984 302.113 92.3684 303.823C90.3684 305.383 88.8184 306.563 86.4384 307.003C85.7284 307.143 81.9984 307.833 80.9284 306.153Z" fill="#D8FFC6" stroke="black" stroke-miterlimit="10"/>
<g id="Vector_85">
<path d="M91.7285 297.683L80.9285 306.153L91.7285 297.683Z" fill="#D8FFC6"/>
<path d="M91.7285 297.683L80.9285 306.153" stroke="black" stroke-width="0.75" stroke-miterlimit="10"/>
</g>
<path id="Vector_86" d="M81.6483 305.683L73.8083 312.963" stroke="black" stroke-miterlimit="10"/>
<path id="Vector_87" d="M67 319L73.73 327.31" stroke="black" stroke-miterlimit="10"/>
<path id="Vector_88" d="M79.54 361.343C77.95 359.733 80.12 355.463 80.67 354.343C82.034 351.725 84.1152 349.551 86.67 348.073C88.45 346.983 91.28 345.263 92.8 346.343C94.09 347.263 93.8 349.713 93.68 350.483C93.37 352.893 92.05 354.483 90.22 356.643C88.57 358.573 87.31 360.053 85.08 360.983C84.44 361.303 80.94 362.763 79.54 361.343Z" fill="#D8FFC6" stroke="black" stroke-miterlimit="10"/>
<g id="Vector_89">
<path d="M88.35 350.813L79.54 361.343L88.35 350.813Z" fill="#D8FFC6"/>
<path d="M88.35 350.813L79.54 361.343" stroke="black" stroke-width="0.75" stroke-miterlimit="10"/>
</g>
<path id="Vector_90" d="M80.15 360.723L74 369.473" stroke="black" stroke-miterlimit="10"/>
<path id="Vector_91" d="M81.1199 331.521C79.8999 329.611 82.8999 325.891 83.6599 324.951C85.5483 322.672 88.0504 320.982 90.8699 320.081C92.8699 319.381 95.9599 318.281 97.2199 319.661C98.2999 320.821 97.4799 323.161 97.2199 323.901C96.4199 326.191 94.7999 327.471 92.5599 329.191C90.5599 330.751 89.0099 331.921 86.6299 332.371C85.9199 332.501 82.1899 333.201 81.1199 331.521Z" fill="#D8FFC6" stroke="black" stroke-miterlimit="10"/>
<g id="Vector_92">
<path d="M91.93 323.051L81.12 331.521L91.93 323.051Z" fill="#D8FFC6"/>
<path d="M91.93 323.051L81.12 331.521" stroke="black" stroke-width="0.75" stroke-miterlimit="10"/>
</g>
<path id="Vector_93" d="M81.85 331.051L74 338.321" stroke="black" stroke-miterlimit="10"/>
</g>
<g id="plant-1">
<path id="Vector_94" d="M45.499 226.113L65.609 419.343" stroke="black" stroke-width="2" stroke-miterlimit="10"/>
<path id="Vector_95" d="M58.5789 277.253C56.9789 275.633 59.1489 271.373 59.6989 270.253C61.0594 267.635 63.1417 265.463 65.6989 263.993C67.4889 262.903 70.3089 261.173 71.8289 262.253C73.1189 263.173 72.8289 265.623 72.7089 266.403C72.4089 268.813 71.0789 270.403 69.2489 272.553C67.5989 274.493 66.3489 275.963 64.1089 276.893C63.4489 277.213 59.9589 278.673 58.5789 277.253Z" fill="#D8FFC6" stroke="black" stroke-miterlimit="10"/>
<g id="Vector_96">
<path d="M67.369 266.713L58.579 277.253L67.369 266.713Z" fill="#D8FFC6"/>
<path d="M67.369 266.713L58.579 277.253" stroke="black" stroke-width="0.75" stroke-miterlimit="10"/>
</g>
<path id="Vector_97" d="M59.169 276.633L53.009 285.383" stroke="black" stroke-miterlimit="10"/>
<path id="Vector_98" d="M61.059 301.383C59.449 299.773 61.589 295.493 62.129 294.383C63.4813 291.747 65.5643 289.556 68.129 288.073C69.909 286.973 72.719 285.223 74.249 286.293C75.549 287.203 75.249 289.653 75.159 290.433C74.869 292.843 73.559 294.433 71.739 296.613C70.099 298.563 68.859 300.043 66.629 300.983C65.949 301.313 62.469 302.793 61.059 301.383Z" fill="#D8FFC6" stroke="black" stroke-miterlimit="10"/>
<g id="Vector_99">
<path d="M69.789 290.783L61.059 301.383L69.789 290.783Z" fill="#D8FFC6"/>
<path d="M69.789 290.783L61.059 301.383" stroke="black" stroke-width="0.75" stroke-miterlimit="10"/>
</g>
<path id="Vector_100" d="M61.659 300.763L55.569 309.553" stroke="black" stroke-miterlimit="10"/>
<path id="Vector_101" d="M46.029 225.443C44.799 223.533 47.809 219.803 48.569 218.873C50.4575 216.591 52.9593 214.898 55.779 213.993C57.779 213.303 60.869 212.203 62.129 213.573C63.209 214.743 62.389 217.073 62.129 217.813C61.329 220.103 59.709 221.393 57.469 223.113C55.469 224.663 53.919 225.843 51.539 226.293C50.829 226.423 47.099 227.123 46.029 225.443Z" fill="#D8FFC6" stroke="black" stroke-miterlimit="10"/>
<g id="Vector_102">
<path d="M56.8391 216.963L46.0291 225.443L56.8391 216.963Z" fill="#D8FFC6"/>
<path d="M56.8391 216.963L46.0291 225.443" stroke="black" stroke-width="0.75" stroke-miterlimit="10"/>
</g>
<path id="Vector_103" d="M45.5789 226.943C47.5789 225.783 46.5189 221.103 46.2589 219.943C45.602 217.056 44.1304 214.418 42.0189 212.343C40.5689 210.843 38.2789 208.453 36.5289 209.113C35.0489 209.673 34.7289 212.113 34.6289 212.893C34.3089 215.303 35.1889 217.183 36.4089 219.723C37.5189 222.013 38.3589 223.723 40.2789 225.233C40.7989 225.653 43.8189 227.953 45.5789 226.943Z" fill="#D8FFC6" stroke="black" stroke-miterlimit="10"/>
<g id="Vector_104">
<path d="M39.689 214.513C41.6356 218.653 43.5823 222.796 45.529 226.943L39.689 214.513Z" fill="#D8FFC6"/>
<path d="M39.689 214.513C41.6356 218.653 43.5823 222.796 45.529 226.943" stroke="black" stroke-width="0.75" stroke-miterlimit="10"/>
</g>
<path id="Vector_105" d="M54.2489 243.583C52.6589 241.963 54.8289 237.703 55.3689 236.583C56.7326 233.968 58.8141 231.796 61.3689 230.323C63.1489 229.233 65.9689 227.503 67.4989 228.583C68.7889 229.503 68.4989 231.953 68.3789 232.733C68.0689 235.143 66.7489 236.733 64.9189 238.883C63.2689 240.823 62.0089 242.293 59.7789 243.223C59.1489 243.543 55.6489 245.053 54.2489 243.583Z" fill="#D8FFC6" stroke="black" stroke-miterlimit="10"/>
<g id="Vector_106">
<path d="M63.059 233.053L54.249 243.593L63.059 233.053Z" fill="#D8FFC6"/>
<path d="M63.059 233.053L54.249 243.593" stroke="black" stroke-width="0.75" stroke-miterlimit="10"/>
</g>
<path id="Vector_107" d="M54.859 242.963L48.699 251.713" stroke="black" stroke-miterlimit="10"/>
<path id="Vector_108" d="M41.2089 249.463C42.3189 247.463 39.0989 243.943 38.2889 243.053C36.2759 240.885 33.6834 239.341 30.8189 238.603C28.8189 238.023 25.6289 237.103 24.4489 238.553C23.4489 239.773 24.3889 242.053 24.6889 242.783C25.6289 245.023 27.3189 246.213 29.6889 247.783C31.7989 249.213 33.3989 250.303 35.7989 250.613C36.4789 250.723 40.2389 251.203 41.2089 249.463Z" fill="#D8FFC6" stroke="black" stroke-miterlimit="10"/>
<g id="Vector_109">
<path d="M29.929 241.633L41.209 249.463L29.929 241.633Z" fill="#D8FFC6"/>
<path d="M29.929 241.633L41.209 249.463" stroke="black" stroke-width="0.75" stroke-miterlimit="10"/>
</g>
<path id="Vector_110" d="M40.459 249.033L48.699 255.843" stroke="black" stroke-miterlimit="10"/>
<path id="Vector_111" d="M44.259 284.643C45.379 282.643 42.159 279.123 41.349 278.233C39.3343 276.062 36.7377 274.518 33.869 273.783C31.869 273.203 28.679 272.273 27.499 273.723C26.499 274.953 27.439 277.233 27.739 277.953C28.679 280.203 30.379 281.393 32.739 282.953C34.839 284.383 36.439 285.473 38.839 285.783C39.579 285.893 43.289 286.383 44.259 284.643Z" fill="#D8FFC6" stroke="black" stroke-miterlimit="10"/>
<g id="Vector_112">
<path d="M32.979 276.803L44.259 284.643L32.979 276.803Z" fill="#D8FFC6"/>
<path d="M32.979 276.803L44.259 284.643" stroke="black" stroke-width="0.75" stroke-miterlimit="10"/>
</g>
<path id="Vector_113" d="M43.509 284.203L51.759 291.013" stroke="black" stroke-miterlimit="10"/>
<path id="Vector_114" d="M49.1191 318.253C50.2291 316.253 47.0091 312.733 46.1991 311.843C44.1861 309.675 41.5935 308.131 38.7291 307.393C36.7291 306.813 33.5391 305.893 32.3591 307.333C31.3591 308.563 32.2991 310.843 32.5991 311.573C33.5391 313.813 35.2291 315.003 37.5991 316.573C39.7091 318.003 41.3091 319.093 43.7091 319.403C44.3891 319.513 48.1491 319.993 49.1191 318.253Z" fill="#D8FFC6" stroke="black" stroke-miterlimit="10"/>
<g id="Vector_115">
<path d="M37.839 310.413L49.119 318.253L37.839 310.413Z" fill="#D8FFC6"/>
<path d="M37.839 310.413L49.119 318.253" stroke="black" stroke-width="0.75" stroke-miterlimit="10"/>
</g>
<path id="Vector_116" d="M48.369 317.823L56.619 324.633" stroke="black" stroke-miterlimit="10"/>
<path id="Vector_117" d="M51.5789 339.603C52.6889 337.603 49.4689 334.083 48.6589 333.183C46.643 331.016 44.0465 329.475 41.1789 328.743C39.1789 328.153 35.9989 327.233 34.8089 328.683C33.8089 329.903 34.7589 332.193 35.0589 332.913C35.9889 335.163 37.6889 336.343 40.0589 337.913C42.1589 339.343 43.7589 340.433 46.1589 340.743C46.8289 340.853 50.5789 341.343 51.5789 339.603Z" fill="#D8FFC6" stroke="black" stroke-miterlimit="10"/>
<g id="Vector_118">
<path d="M40.2891 331.763L51.5791 339.603L40.2891 331.763Z" fill="#D8FFC6"/>
<path d="M40.2891 331.763L51.5791 339.603" stroke="black" stroke-width="0.75" stroke-miterlimit="10"/>
</g>
<path id="Vector_119" d="M50.8091 339.163L59.0591 345.973" stroke="black" stroke-miterlimit="10"/>
<path id="Vector_120" d="M54.2089 369.863C55.3289 367.863 52.1089 364.343 51.2989 363.453C49.2811 361.286 46.6857 359.742 43.8189 359.003C41.8189 358.423 38.6289 357.503 37.4489 358.953C36.4489 360.173 37.3889 362.463 37.6889 363.183C38.6289 365.423 40.3289 366.613 42.6889 368.183C44.7889 369.613 46.3889 370.703 48.7889 371.013C49.4789 371.123 53.2389 371.603 54.2089 369.863Z" fill="#D8FFC6" stroke="black" stroke-miterlimit="10"/>
<g id="Vector_121">
<path d="M42.929 362.053L54.209 369.883L42.929 362.053Z" fill="#D8FFC6"/>
<path d="M42.929 362.053L54.209 369.883" stroke="black" stroke-width="0.75" stroke-miterlimit="10"/>
</g>
<path id="Vector_122" d="M53.459 369.433L61.709 376.243" stroke="black" stroke-miterlimit="10"/>
<path id="Vector_123" d="M55.669 388.693C56.779 386.693 53.559 383.173 52.749 382.283C50.736 380.115 48.1434 378.571 45.279 377.833C43.279 377.253 40.089 376.333 38.909 377.833C37.909 379.053 38.849 381.333 39.149 382.063C40.079 384.303 41.779 385.493 44.149 387.063C46.259 388.493 47.859 389.583 50.259 389.893C50.929 389.953 54.689 390.433 55.669 388.693Z" fill="#D8FFC6" stroke="black" stroke-miterlimit="10"/>
<g id="Vector_124">
<path d="M44.3889 380.853L55.6689 388.693L44.3889 380.853Z" fill="#D8FFC6"/>
<path d="M44.3889 380.853L55.6689 388.693" stroke="black" stroke-width="0.75" stroke-miterlimit="10"/>
</g>
<path id="Vector_125" d="M54.9089 388.263L63.1589 395.073" stroke="black" stroke-miterlimit="10"/>
</g>
<path id="Vector_126" d="M400.73 255.49C399.16 253.88 397.39 254.77 395.81 252.84C395.29 252.107 394.921 251.277 394.725 250.4C394.529 249.522 394.511 248.615 394.67 247.73C394.77 247.02 395.19 243.98 397.13 243.37C398.52 242.94 399.97 243.97 400.73 244.51C403 246.12 403.67 248.4 403.95 248.29C404.39 248.13 401.69 243.04 402.81 237.5C403.12 235.98 403.67 233.29 405.81 232.2C408.47 230.87 412.49 232.47 413.58 234.85C414.36 236.56 413.09 237.46 413.96 240.72C414.368 241.741 414.608 242.822 414.67 243.92C414.564 244.947 414.39 245.966 414.15 246.97C414.33 247.05 415.02 245.2 416.61 243.37C417.75 242.06 418.96 240.67 420.4 240.72C422.94 240.81 424.4 245.35 424.56 245.83C424.86 246.83 425.74 249.63 424.37 252.08C423.37 253.95 422 253.74 419.83 255.68C416.83 258.3 417.64 260.15 415.47 262.31C411.97 265.8 404.68 266.22 402.41 263.44C400.57 261.17 403.04 257.85 400.73 255.49Z" fill="#D8FFC6" stroke="black" stroke-miterlimit="10"/>
<path id="Vector_127" d="M420.77 258.5H397.24V278.01H420.77V258.5Z" fill="black" stroke="black" stroke-width="2" stroke-miterlimit="10"/>
<path id="Vector_128" d="M128.14 354.95L112.88 460.83L137.72 357.59L128.14 354.95Z" fill="#B3B3B3" stroke="black" stroke-miterlimit="10"/>
<path id="Vector_129" d="M175.08 359.74L192.98 460.83L184.03 360.65L175.08 359.74Z" fill="#B3B3B3" stroke="black" stroke-miterlimit="10"/>
<path id="Vector_130" d="M150.82 359.38L158.16 460.83L160.72 359.91L150.82 359.38Z" fill="#B3B3B3" stroke="black" stroke-miterlimit="10"/>
<path id="Vector_131" d="M210.86 359.33L226.51 460.83L220.44 359.33H210.86Z" fill="#B3B3B3" stroke="black" stroke-miterlimit="10"/>
<path id="Vector_132" d="M127.49 243C120.13 245.11 113.61 253.32 110.27 262.52C108.66 266.95 108.41 273.95 107.97 287.77C107.574 295.608 107.574 303.462 107.97 311.3C108.33 317.2 108.97 322.3 110.27 332.54C111.4 341.49 111.98 345.99 112.56 347.46C116.88 358.3 128.97 362.98 137.82 366.4C152.38 372.03 164.71 372.14 177.47 372.13C192.09 372.13 201.58 372.13 213 367.55C230.44 360.55 244.45 346.15 242.27 341.72C241.65 340.45 238.6 340.11 232.52 339.43C227.52 338.87 225.45 339.1 217.6 338.85C214.33 338.75 210.38 338.62 205.77 338.22C200.19 337.75 195.48 337.34 192.33 336.48C183.17 333.97 178.08 325.01 173.43 316.83C167.15 305.83 169.37 303.64 160.49 283.49C156.49 274.49 156.41 275.66 153.28 268.07C149.06 257.84 148.49 253.84 143.82 248.91C141.97 246.96 137.82 242.69 131.88 242.44C130.397 242.404 128.917 242.593 127.49 243Z" fill="white" stroke="black" stroke-miterlimit="10"/>
<path id="Vector_133" d="M321.3 34.64L299.14 55.94" stroke="black" stroke-width="0.5" stroke-miterlimit="10"/>
<path id="Vector_134" d="M294.5 59.61L276.46 77.48" stroke="black" stroke-width="0.5" stroke-miterlimit="10"/>
<path id="Vector_135" d="M299.14 43.97L278.35 64.94" stroke="black" stroke-width="0.5" stroke-miterlimit="10"/>
<path id="Vector_136" d="M274.57 68.54L268.21 74.73" stroke="black" stroke-width="0.5" stroke-miterlimit="10"/>
<path id="Vector_137" d="M425.15 93.25L402.98 114.55" stroke="black" stroke-width="0.5" stroke-miterlimit="10"/>
<path id="Vector_138" d="M398.34 120.22L380.3 138.09" stroke="black" stroke-width="0.5" stroke-miterlimit="10"/>
<path id="Vector_139" d="M402.98 104.59L382.19 125.55" stroke="black" stroke-width="0.5" stroke-miterlimit="10"/>
<path id="Vector_140" d="M378.41 129.15L372.06 135.34" stroke="black" stroke-width="0.5" stroke-miterlimit="10"/>
<path id="Vector_141" d="M421.12 163.86L398.96 185.16" stroke="black" stroke-width="0.5" stroke-miterlimit="10"/>
<path id="Vector_142" d="M394.32 190.83L376.28 208.7" stroke="black" stroke-width="0.5" stroke-miterlimit="10"/>
<path id="Vector_143" d="M398.96 175.19L378.17 196.16" stroke="black" stroke-width="0.5" stroke-miterlimit="10"/>
<path id="Vector_144" d="M374.39 199.76L368.03 205.95" stroke="black" stroke-width="0.5" stroke-miterlimit="10"/>
<path id="Vector_145" d="M309.73 211.28H385.3L368.03 272.46H292.86L309.73 211.28Z" fill="#B3B3B3" stroke="black" stroke-miterlimit="10"/>
<path id="Vector_146" d="M261.01 272.46V275.61H366.97L368.03 272.46H261.01Z" fill="white" stroke="black" stroke-miterlimit="10"/>
<path id="Vector_147" d="M314.52 217.27L301.69 268.26H361.61L375.24 217.27H314.52Z" fill="white" stroke="black" stroke-miterlimit="10"/>
<g id="butterfly">
    <g id="right-wing">
    <path id="Vector_148" d="M280.51 120.09C279.51 117.61 276.41 109.42 280.1 102.18C280.89 100.62 282.18 98.09 284.61 97.54C288.24 96.7 291.96 100.84 293.49 103.28C295.38 106.28 295.44 109.05 295.54 113.67C295.65 118.49 294.54 119.96 293.9 120.67C293 121.57 291.77 122.1 291.85 122.31C291.93 122.52 293.36 122.05 295.13 121.63C297.87 120.98 299.98 120.48 302.13 120.94C302.68 121.06 306 121.79 306.91 124.22C307.96 127.04 305.14 130.38 303.08 131.88C300.922 133.366 298.308 134.043 295.7 133.79C291.23 133.52 288.24 130.91 286.7 129.56C283.846 126.997 281.712 123.732 280.51 120.09Z" fill="white" stroke="black" stroke-miterlimit="10"/>
    <path id="Vector_149" d="M285.11 105.35C283.11 106.02 282.52 109.28 283.06 111.5C283.72 114.24 286.42 116.82 288.39 116.29C290.36 115.76 291.59 111.63 290.3 108.77C289.41 106.77 287.05 104.71 285.11 105.35Z" fill="#FFD0FF" stroke="black" stroke-miterlimit="10"/>
    <path id="Vector_150" d="M294.29 126.87C294.06 127.79 295.17 128.75 295.41 128.97C296 129.512 296.741 129.861 297.535 129.97C298.328 130.079 299.136 129.943 299.85 129.58C300.6 129.13 301.54 128.11 301.3 127.14C301.02 125.99 299.3 125.67 298.71 125.56C296.99 125.23 294.59 125.66 294.29 126.87Z" fill="#FFD0FF" stroke="black" stroke-miterlimit="10"/>
    </g>
    <g id="left-wing">
    <path id="Vector_151" d="M277.33 120.7C275.5 118.76 269.49 112.38 261.33 112.56C259.58 112.56 256.74 112.66 255.18 114.61C252.85 117.53 254.97 122.67 256.5 125.11C258.38 128.11 260.86 129.37 264.97 131.46C269.27 133.65 271.06 133.33 271.97 133.01C273.17 132.59 274.18 131.7 274.33 131.88C274.48 132.06 273.44 133.12 272.33 134.53C270.57 136.72 269.2 138.4 268.69 140.53C268.56 141.08 267.77 144.39 269.57 146.26C271.65 148.43 275.88 147.34 278.13 146.14C280.406 144.839 282.151 142.779 283.06 140.32C284.75 136.17 283.7 132.32 283.16 130.32C282.069 126.668 280.062 123.357 277.33 120.7Z" fill="white" stroke="black" stroke-miterlimit="10"/>
    <path id="Vector_152" d="M262.04 118.46C263.51 116.94 266.7 117.83 268.48 119.28C270.66 121.07 271.81 124.62 270.48 126.16C269.15 127.7 264.9 127.03 262.88 124.62C261.45 122.94 260.63 119.92 262.04 118.46Z" fill="#FFD0FF" stroke="black" stroke-miterlimit="10"/>
    <path id="Vector_153" d="M277.45 136.06C278.38 136.25 278.77 137.67 278.86 137.98C279.092 138.748 279.084 139.568 278.837 140.331C278.591 141.094 278.117 141.763 277.48 142.25C276.75 142.72 275.43 143.13 274.65 142.49C273.87 141.85 274.19 140.06 274.35 139.49C274.81 137.79 276.24 135.8 277.45 136.06Z" fill="#FFD0FF" stroke="black" stroke-miterlimit="10"/>
    </g>
    <g id="body">
    <path id="Vector_154" d="M277.79 118.33L287.23 133.65L277.79 118.33Z" fill="white"/>
    <path id="Vector_155" d="M277.79 118.33C279.169 119.136 280.417 120.147 281.49 121.33C283.531 123.56 285.133 126.155 286.21 128.98C286.781 130.473 287.118 132.045 287.21 133.64C285.827 132.84 284.578 131.828 283.51 130.64C282.484 129.535 281.573 128.328 280.79 127.04C279.99 125.756 279.32 124.396 278.79 122.98C278.223 121.49 277.886 119.922 277.79 118.33Z" fill="black"/>
    <path id="Vector_156" d="M276.7 116.6C276.573 116.726 276.472 116.875 276.403 117.04C276.335 117.205 276.299 117.381 276.299 117.56C276.299 117.739 276.335 117.915 276.403 118.08C276.472 118.245 276.573 118.394 276.7 118.52C276.858 118.637 277.039 118.72 277.231 118.763C277.424 118.806 277.623 118.808 277.816 118.77C278.009 118.731 278.192 118.652 278.353 118.539C278.514 118.425 278.649 118.279 278.75 118.11C278.92 117.45 277.34 116.24 276.7 116.6Z" fill="black" stroke="black" stroke-miterlimit="10"/>
    <path id="Vector_157" d="M276.84 106.17C276.409 107.36 276.133 108.6 276.02 109.86C275.784 112.795 276.399 115.735 277.79 118.33" stroke="black" stroke-miterlimit="10"/>
    <path id="Vector_158" d="M267.54 110.54C271.515 112.305 275.025 114.972 277.79 118.33" stroke="black" stroke-miterlimit="10"/>
    </g>
</g>
<g id="human 1">
<path id="Vector_159" d="M217.11 298.44C218.43 295.83 223.49 295.71 261.75 303.77C276.75 306.94 282.75 308.38 287.6 314.11C293.41 320.96 293.79 329.4 293.87 331.86C294.31 346.04 284.52 347.69 272.46 374.67C268.26 384.07 265.66 391.84 258.36 402.87C255.02 407.87 254.36 408.14 251.57 412.79C243.57 426.23 245.03 431.48 239.04 436.79C233.05 442.1 222.98 444.33 219.72 440.96C216.46 437.59 220.05 429.04 224.42 418.51C226.54 413.41 227.54 412.45 231.21 404.94C231.21 404.94 235.21 396.71 239.04 387.18C246.96 367.43 252.56 353.44 248.44 338.1C246.91 332.4 244.81 324.6 238 319.31C232 314.68 226 314.67 220.77 307.82C219.03 305.61 215.68 301.17 217.11 298.44Z" fill="white" stroke="black" stroke-miterlimit="10"/>
<path id="Vector_160" d="M256.75 383.55C259.12 392.67 262.14 393.23 268.24 410.7C270.96 418.49 272.31 422.38 272.94 425.84C274.54 434.72 273.38 439.1 277.01 442.69C278.312 443.959 279.901 444.894 281.642 445.417C283.383 445.939 285.225 446.033 287.01 445.69C290.85 444.88 294.57 441.69 295.36 437.86C296.59 431.91 289.72 429.7 288.05 419.06C287.86 417.87 288.05 418.78 287.53 410.71C287.16 405.4 286.95 402.34 286.53 398.71C286.11 395.08 285.65 393.02 284.96 389.31C282.02 373.42 282.71 373.79 281.83 371.04C278.36 360.29 266.35 350.4 260.42 352.76C254.11 355.25 253.73 371.89 256.75 383.55Z" fill="white" stroke="black" stroke-miterlimit="10"/>
<path id="Vector_161" d="M250.11 342.3C251.47 350.51 247.89 353.09 248.41 359.67C248.65 362.77 249.36 360.75 254.58 373.51C254.97 374.51 257.26 380.08 259.47 386.51C260.67 389.98 261.26 391.71 261.39 392.32C261.94 394.95 261.84 396.44 262.8 396.95C263.99 397.58 265.8 396.19 266.95 395.42C274.79 390.28 283.24 394.42 285.27 390.19C285.37 389.98 285.27 390.1 285.27 385.61C285.27 381.12 285.34 380.38 285.27 377.1C285.22 374.7 285.13 372.98 285.09 372.31C284.96 369.97 284.8 368.21 284.75 367.69C284.52 365.21 284.24 363.1 284.18 362.69C283.35 357.63 272.91 356.97 263.24 350.26C255.24 344.74 251.33 337.58 249.91 338.5C249.31 338.92 249.78 340.3 250.11 342.3Z" fill="black" stroke="black" stroke-miterlimit="10"/>
<path id="Vector_162" d="M216.78 296.85C217.96 296.42 218.59 296.56 222.45 296.64C226.63 296.72 227.13 296.58 229.65 296.64C239.34 296.84 256.48 299.25 256.48 299.25C260.39 299.77 269.48 301 281.34 303.18C290.34 304.83 297.1 306.33 301.63 311.47C302.7 312.68 305.16 315.55 305.12 319.32C305.12 320.7 304.77 321.41 303.12 325.21C299.63 333.44 300.42 331.97 298.54 336.11C297.54 338.41 296.42 340.8 294.84 343.97C293.266 347.258 291.517 350.459 289.6 353.56C287.95 356.19 287.6 356.34 285.89 359.02C283.38 362.87 282.41 365.02 280.44 368.61C277.55 373.9 276.8 374.46 268.44 387.81C266.2 391.38 265.08 393.17 264.96 393.4C263.66 395.87 263.62 396.53 262.76 396.97C262.33 397.19 261.1 397.66 254.26 393.91C251.64 392.48 251.34 392.15 248.81 390.86C247.166 390.004 245.477 389.236 243.75 388.56C240.51 387.32 239.18 387.93 238.55 386.93C237.72 385.61 239.18 383.55 240.55 381.05C241.21 379.8 242.44 375.93 244.91 368.18C247.47 360.13 248.47 358.18 247.53 355.74C247.16 354.82 245.76 351.86 245.62 351.57C244.36 348.91 244.21 348.79 243.68 347.57C241.68 343.02 242.68 342.24 241.4 340.94C240.77 340.31 239.92 339.88 232.51 339.41C228.85 339.17 227.68 339.15 227.68 339.15C214.63 338.9 217.42 338.61 207.39 338.49C198.69 338.4 195.89 338.92 194.96 337.19C194.2 335.75 195.43 334.19 199.96 326.72C204.75 318.87 207.17 314.89 208.03 312.32C209.2 308.82 209.28 306.79 211.3 302.94C213.84 298.17 215.88 297.17 216.78 296.85Z" fill="black" stroke="black" stroke-miterlimit="10"/>
<path id="Vector_163" d="M265.58 165.68C265.09 165.53 264.52 166.81 263.08 168.51C261.37 170.51 258.08 173.51 256.76 172.83C255.76 172.29 255.82 169.48 256.92 167.51C257.45 166.51 258.14 165.96 261.92 163.85C267.66 160.63 268.35 160.74 268.74 161.02C269.67 161.67 268.66 163.08 269.41 166.68C269.93 169.21 270.73 169.96 270.24 171.17C269.64 172.64 267.6 173.71 266.58 173.17C264.71 172.17 266.63 165.99 265.58 165.68Z" fill="white" stroke="black" stroke-miterlimit="10"/>
<path id="Vector_164" d="M223.47 193.17C228.15 189.55 231.25 187.38 233.12 186.01C238.5 182.07 236.4 182.74 244.12 176.53C246.42 174.67 247.68 173.75 248.28 171.87C249.28 168.87 247.28 167.17 248.44 164.38C249.6 161.59 252.55 160.55 253.44 160.21C255.242 159.512 257.205 159.342 259.1 159.72C260.21 159.96 260.45 160.26 261.26 160.21C262.98 160.13 263.94 158.71 265.42 157.21C267.66 154.95 271.71 151.9 273.42 152.88C273.72 153.113 273.954 153.42 274.099 153.77C274.245 154.121 274.297 154.503 274.25 154.88C274.2 155.61 273.76 156.45 271.09 158.21C269 159.59 268.25 159.74 265.76 161.21C264.388 161.949 263.106 162.845 261.94 163.88C260.66 165.06 259.29 166.38 259.44 168.04C259.526 168.72 259.815 169.358 260.27 169.87C261.77 171.6 264.78 171.67 266.93 171.03C269.25 170.35 269.08 169.28 271.93 168.37C273.22 167.96 275.2 167.37 276.76 168.37C276.86 168.44 278.23 169.37 278.09 170.37C277.95 171.37 276.04 171.89 273.43 172.86C269.27 174.42 270.05 174.94 265.94 176.53C263.35 177.53 263.32 177.21 257.94 179.02C254.455 179.879 251.353 181.87 249.12 184.68C246.74 187.19 244.97 189.23 243.12 191.34C239.12 195.93 239.03 196.05 238.46 196.67C234.98 200.43 234.88 200.04 233.13 202.16C229.59 206.45 229.36 208.82 227.8 208.82C226.24 208.82 226.27 206.82 222.64 202.66C220.4 200.1 219.38 199.66 219.32 198.33C219.22 196.49 220.97 195.07 223.47 193.17Z" fill="white" stroke="black" stroke-miterlimit="10"/>
<path id="Vector_165" d="M286.32 261.82C286.77 263.03 287.67 264.14 288.03 264.02C288.39 263.9 288.19 262.24 288.15 262.02C288.06 261.479 287.922 260.947 287.74 260.43C287.46 259.43 287.42 259.52 286.94 258.06C286.69 257.3 286.69 257.26 286.6 257.18C285.68 256.37 282.7 258.39 282.25 258.7C281.41 259.29 278.25 261.47 278.79 262.9C278.97 263.241 279.248 263.519 279.59 263.697C279.931 263.876 280.318 263.947 280.7 263.9C281.54 263.79 281.85 263.09 283.75 261.13C285.03 259.8 285.39 259.6 285.65 259.7C285.91 259.8 285.85 260.57 286.32 261.82Z" fill="white" stroke="black" stroke-miterlimit="10"/>
<path id="Vector_166" d="M222.81 193.65C223.81 193.7 224.21 194.7 225.69 196.19C226.888 197.415 228.285 198.429 229.82 199.19C231.242 200.016 232.824 200.528 234.46 200.69C235.14 200.69 235.81 200.69 235.93 200.99C236.14 201.52 234.53 202.62 234.04 202.99C231.3 204.93 230.87 206.62 227.04 211.25C224.32 214.56 224.25 214.05 219.32 219.34C215.65 223.27 214.79 224.52 210.96 228.86C204.24 236.49 203.08 240.56 200.36 240.28C198.74 240.11 197.72 238.61 196.03 236.13C193.94 233.07 194.17 231.62 192.03 225.19C190.12 219.57 189.09 218.19 190.03 216.67C190.97 215.15 192.48 215.62 196.03 213.94C198.01 212.883 199.889 211.644 201.64 210.24C206.12 206.96 205.9 206.72 210.8 202.99C215.42 199.49 216.87 198.75 218.18 197.11C218.847 196.275 219.632 195.54 220.51 194.93C221.55 194.03 222.11 193.62 222.81 193.65Z" fill="#FFD0FF" stroke="black" stroke-miterlimit="10"/>
<path id="Vector_167" d="M199.83 205.61C200.05 206.17 199.83 206.06 200.28 212.42C200.28 212.42 200.45 215.05 200.88 220.23C201.77 231.06 203.31 238.98 203.67 248.09C204.6 272.19 204.36 281.52 204.36 281.52C204.3 283.87 204.09 290.86 207.84 293.01C209.84 294.14 212.3 293.64 213.42 295.45C214.22 296.76 213.81 298.45 213.42 299.69C212.75 301.69 212.2 303.11 212.05 303.39C210.29 306.61 212.54 303.39 207.05 314.19C204.91 318.41 203.7 320.59 199.96 327.7C199.64 328.3 198.75 329.99 197.64 332.12L196.49 334.35C195.49 336.63 195.43 336.92 195.02 337.21C194.08 337.88 192.25 337.3 189.02 335.21C186.141 333.389 183.507 331.208 181.18 328.72C177.936 324.861 175.181 320.616 172.98 316.08C170.18 310.66 168.3 305.78 164.53 296C159.71 283.49 159.74 283.39 158.65 280.79C154.25 270.28 152.16 269.36 148.55 260.32C148.02 258.99 147.55 257.97 147.12 257.09C146.49 255.81 145.99 254.94 145.43 253.96C142.33 248.57 141.81 247.48 140.43 245.96C139.63 245.017 138.629 244.265 137.5 243.76C136.5 243.36 136.35 243.53 135.97 243.23C134.67 242.23 135.85 239.55 136.32 235.23C136.79 230.91 135.99 230.54 136.65 226.8C136.986 224.922 137.54 223.09 138.3 221.34C140.742 215.943 144.695 211.369 149.68 208.17C152.62 206.24 156.05 204.68 162.24 203.17C176.11 199.91 197.11 198.67 199.83 205.61Z" fill="#FFD0FF" stroke="black" stroke-miterlimit="10"/>
<path id="Vector_168" d="M279.65 253.63C279.58 253.34 280 253.01 280.31 252.77C281.435 252.005 282.77 251.607 284.13 251.63C286.56 251.49 286.52 251.85 288.61 251.72C290.7 251.59 291.61 251.15 292.13 251.72C292.8 252.45 292.51 254.3 292.51 254.3L292.62 256.58L292.77 260C292.93 261.69 293.11 262 292.89 262.68C292.62 263.59 291.89 264.6 291.37 264.49C290.69 264.34 291.08 262.27 290.13 259.06C289.54 257.06 289.13 255.82 288.03 255.06C287.41 254.64 286.03 254.52 283.27 254.3C280.99 254.11 279.75 254.09 279.65 253.63Z" fill="white" stroke="black" stroke-miterlimit="10"/>
<path id="Vector_169" d="M283.84 255.44C283.69 254.8 285.84 253.38 288.03 253.25C289.03 253.19 288.87 253.44 290.7 253.53C291.97 253.639 293.247 253.609 294.51 253.44C295.78 253.24 296.34 252.97 296.99 253.34C297.442 253.63 297.778 254.069 297.94 254.58C298.065 255.082 298.065 255.608 297.94 256.11C297.842 257.2 297.906 258.299 298.13 259.37C298.253 260.17 298.441 260.96 298.69 261.73C299.03 262.73 299.36 263.3 299.18 263.44C299 263.58 298.39 263.18 298.04 262.87C297.631 262.5 297.307 262.047 297.09 261.54C296.937 260.46 296.392 259.475 295.56 258.77C294.5 257.99 293.76 258.47 291.65 257.92C289.54 257.37 289.44 256.58 287.18 256.01C285.11 255.49 283.94 255.86 283.84 255.44Z" fill="white" stroke="black" stroke-miterlimit="10"/>
<path id="Vector_170" d="M188.2 285.17C188.05 285.83 189.81 288.81 193.32 294.76C194.46 296.69 195.32 298.05 196.96 298.76C197.76 299.09 198.76 299.26 202.09 298.76C204.211 298.465 206.309 298.024 208.37 297.44C212.7 296.11 215.81 294.83 219.61 293.31C222.34 292.21 226.05 290.72 229.69 289.31C235.44 287.13 235.34 287.31 240.28 285.51C244.2 284.03 249.74 281.94 256.48 278.73C261.6 276.28 262.03 275.73 265.24 274.59C268.14 273.59 270.74 272.92 274.5 271.45C275.17 271.19 276.3 270.73 278.3 269.96C281.13 268.87 281.05 268.96 281.3 268.81C283.65 267.38 282.99 265.44 285.43 262.81C286.65 261.505 288.186 260.537 289.89 260C291.347 259.619 292.862 259.504 294.36 259.66C296.737 259.757 299.107 259.98 301.46 260.33C301.91 260.394 302.365 260.424 302.82 260.42C303.318 260.479 303.823 260.389 304.27 260.16C304.56 259.98 304.93 259.63 304.94 259.38C304.94 258.28 297.69 259.03 290.55 255.7C288.01 254.51 285.55 253.49 280.63 251.4C279.82 251.05 278.21 250.4 276.83 251.07C276.328 251.384 275.893 251.794 275.55 252.276C275.207 252.758 274.962 253.303 274.83 253.88C272.53 260.24 264.99 263.88 264.08 264.29C262.142 265.048 260.132 265.604 258.08 265.95C252.8 267.15 250.49 267.05 244.85 267.95C242.24 268.36 240.08 268.83 235.76 269.77C227.53 271.57 221.51 273.22 209.48 276.55C195.6 280.45 188.81 282.46 188.2 285.17Z" fill="white" stroke="black" stroke-miterlimit="10"/>
<path id="Vector_171" d="M167.23 189.78C167.03 188.47 167.6 188.08 168.81 184.46C170.02 180.84 170.38 178.14 171.03 172.89C173.2 155.57 170.59 147.99 176.03 139.59C176.78 138.44 177.8 137.16 179.83 134.59C184.89 128.25 187.41 125.07 190.06 124.12C193.24 122.98 193.06 124.82 201.24 124.12C204.24 123.87 205.85 123.48 208.38 124.12C210.544 124.57 212.526 125.648 214.08 127.22C216.58 129.91 216.93 133.61 217.18 136.22C217.53 139.93 216.82 141.81 218.37 143.59C219.168 144.426 220.141 145.075 221.22 145.49C223.7 146.49 225.22 145.86 225.98 146.92C226.74 147.98 225.84 150.05 225.74 150.25C224.55 152.63 222.1 152.49 221.46 154.53C221.21 155.31 221.41 155.85 221.7 157.15C222.288 160.116 222.622 163.127 222.7 166.15C222.99 171.32 222.33 172.37 221.98 172.81C221.24 173.81 220.21 174.19 218.18 174.96C215.543 176.067 212.71 176.632 209.85 176.62C206.04 176.55 204.91 175.39 203.43 176.38C202.43 177.02 202.25 177.88 201.29 181.38C199.29 188.74 198.73 190.07 198.2 191.13C197.26 193.091 195.969 194.864 194.39 196.36C186.85 202.83 168.23 196.55 167.23 189.78Z" fill="white" stroke="black" stroke-miterlimit="10"/>
<path id="Vector_172" d="M200.16 196.75C200.16 196.75 194.49 191.69 191.68 189.49C185.296 184.707 177.789 181.645 169.88 180.6C163.96 179.83 159.5 180.47 154.33 181.21C146.84 182.28 143.1 182.81 140.2 185.21C136.79 188.07 135.77 193.38 133.74 203.98C131.55 215.41 132.74 217.8 133.94 219.12C135.86 221.19 139.34 222.19 141.82 221.12C144.3 220.05 144.76 217.28 146.06 214.86C149.92 207.64 160.32 206 166.85 204.97C174.797 203.904 182.872 204.314 190.67 206.18C196.06 207.62 199.96 209.54 201.57 207.8C203.87 205.36 200.16 196.75 200.16 196.75Z" fill="#FFD0FF" stroke="black" stroke-miterlimit="10"/>
<path id="Vector_173" d="M148.9 198.67L152.96 198.07" stroke="black" stroke-miterlimit="10"/>
<path id="Vector_174" d="M158.51 195.81C161.097 194.747 163.833 194.089 166.62 193.86C169.591 193.643 172.578 193.896 175.47 194.61C178.33 195.288 181.102 196.294 183.73 197.61C187.53 199.38 188.78 200.56 193.94 203.61C196.94 205.38 199.54 206.79 201.57 207.85" stroke="black" stroke-miterlimit="10"/>
<g id="Vector_175">
<path d="M182.63 209.8C184.78 209.1 188.09 208.42 191.2 209.8C194.5 211.27 196.05 214.37 199.2 224.05C202.225 232.705 204.7 241.543 206.61 250.51C207.3 253.84 207.92 257.23 209.28 262.79C210.64 268.35 209.74 271.99 212.12 273.35C213.4 274.08 214.96 273.88 217.79 273.51C221.69 272.99 222.79 271.83 224.22 272.6C225.22 273.14 225.03 273.91 226.61 277.44C227.7 279.88 227.94 279.84 229.76 283.59C230.83 285.78 232 286.59 231.65 287.68C231.43 288.38 230.81 288.76 229.65 289.33C227.022 290.581 224.309 291.644 221.53 292.51C220.07 293.02 220.8 292.84 217.23 294.23C213.66 295.62 212.1 296.23 209.96 296.91C207.404 297.829 204.749 298.447 202.05 298.75C199.42 298.99 198.05 299.23 196.92 298.75C195.42 298.13 194.58 297 192.17 292.9C189.37 288.12 188.74 286.84 188.74 286.84C181.68 272.45 181.99 273.41 180.81 270.63C179.07 266.55 179.96 268.18 176.14 258.45C174.26 253.67 172.99 250.36 170.46 243.74C168.58 238.84 167.93 237.09 167.52 234.31C166.971 231.151 167.005 227.917 167.62 224.77C168.513 220.561 170.468 216.65 173.3 213.41" fill="#FFD0FF"/>
<path d="M182.63 209.8C184.78 209.1 188.09 208.42 191.2 209.8C194.5 211.27 196.05 214.37 199.2 224.05C202.225 232.705 204.7 241.543 206.61 250.51C207.3 253.84 207.92 257.23 209.28 262.79C210.64 268.35 209.74 271.99 212.12 273.35C213.4 274.08 214.96 273.88 217.79 273.51C221.69 272.99 222.79 271.83 224.22 272.6C225.22 273.14 225.03 273.91 226.61 277.44C227.7 279.88 227.94 279.84 229.76 283.59C230.83 285.78 232 286.59 231.65 287.68C231.43 288.38 230.81 288.76 229.65 289.33C227.022 290.581 224.309 291.644 221.53 292.51C220.07 293.02 220.8 292.84 217.23 294.23C213.66 295.62 212.1 296.23 209.96 296.91C207.404 297.829 204.749 298.447 202.05 298.75C199.42 298.99 198.05 299.23 196.92 298.75C195.42 298.13 194.58 297 192.17 292.9C189.37 288.12 188.74 286.84 188.74 286.84C181.68 272.45 181.99 273.41 180.81 270.63C179.07 266.55 179.96 268.18 176.14 258.45C174.26 253.67 172.99 250.36 170.46 243.74C168.58 238.84 167.93 237.09 167.52 234.31C166.971 231.151 167.005 227.917 167.62 224.77C168.513 220.561 170.468 216.65 173.3 213.41" stroke="black" stroke-miterlimit="10"/>
</g>
<path id="Vector_176" d="M248.11 417.36C251.35 417.51 248.68 426.96 253.47 436.42C255.845 441.294 259.614 445.353 264.3 448.08C267.21 449.73 269.12 449.51 271.83 451.18C273.01 451.9 273.34 452.25 273.31 452.72C273.2 454.77 266.25 458.97 260.25 458.97C252.65 458.97 252.47 453.03 242.25 450.03C238.79 449.03 235.69 448.82 229.47 448.45C218.8 447.8 214.13 449.09 212.84 446.3C212.04 444.59 213.43 443.3 215.77 436.42C218.77 427.57 218.91 422.51 220.4 422.19C221.48 421.95 221.4 424.62 223.77 427C227.1 430.35 233.67 431.55 237.43 428.81C239.71 427.15 239.17 425.35 242.79 421.43C244.95 419.17 246.67 417.29 248.11 417.36Z" fill="#FFD0FF" stroke="black" stroke-miterlimit="10"/>
<path id="Vector_177" d="M263.95 455.05C265.61 454.79 265.95 455.05 267.18 454.7C268.41 454.35 268.29 454.11 269.58 453.82C270.87 453.53 271.58 453.69 272.34 453.07C272.85 452.67 272.89 452.34 273.23 452.28C273.78 452.18 274.23 452.96 274.68 453.84C274.882 454.229 275.059 454.629 275.21 455.04C275.399 455.451 275.534 455.884 275.61 456.33C275.61 457.81 269.73 459.95 269.47 460.05C263.97 462.05 261.22 463.05 258.9 462.9C255.9 462.72 253.32 461.02 248.22 457.62C244.88 455.39 244.69 454.81 242.68 454.11C242.04 453.88 241.19 453.64 233.4 453.44C227.5 453.29 224.55 453.21 222.96 453.24C222.01 453.268 221.058 453.245 220.11 453.17C219.27 453.17 218.95 453.06 217.53 452.92C215.38 452.72 215.53 452.81 215.12 452.72C214.27 452.56 212.18 452.17 211.53 450.37C211.34 449.829 211.275 449.252 211.339 448.683C211.403 448.113 211.595 447.565 211.9 447.08C212.68 446.028 213.818 445.299 215.1 445.03C217.224 444.504 219.468 444.782 221.4 445.81C226.4 448.05 229.17 444.81 236.56 445.66C244.97 446.66 252.41 452.17 253.33 452.85C253.33 452.85 258.18 456.45 261.79 455.52C262.499 455.318 263.221 455.161 263.95 455.05Z" fill="white" stroke="black" stroke-miterlimit="10"/>
<path id="Vector_178" d="M290.37 422.17C292.68 420.4 297.46 427.17 307.31 429.69C312.369 431.044 317.681 431.151 322.79 430C325.92 429.25 327.06 428.05 330.07 427.42C331.37 427.15 331.84 427.16 332.14 427.42C333.49 428.63 331.7 434.92 327.63 438.34C322.48 442.67 318.21 439.46 309.19 443.61C306.13 445.01 303.89 446.67 299.4 450C291.7 455.72 289.4 459.09 286.61 458.28C284.88 457.78 284.93 456.28 281.72 451.13C277.59 444.51 274.16 441.62 274.94 440.59C275.52 439.85 277.32 441.37 280.59 441.35C285.18 441.35 290.48 438.23 291.13 434.57C291.52 432.36 289.89 431.66 289.62 427.42C289.46 424.96 289.33 422.95 290.37 422.17Z" fill="#FFD0FF" stroke="black" stroke-miterlimit="10"/>
<path id="Vector_179" d="M327.39 434.07C328.39 432.98 328.69 432.93 329.39 432.07C330.09 431.21 329.73 431.12 330.39 430.21C331.05 429.3 331.64 429.01 331.74 428.21C331.8 427.7 331.6 427.49 331.74 427.26C331.88 427.03 332.88 427.09 333.81 427.31C334.218 427.402 334.619 427.522 335.01 427.67C335.419 427.785 335.812 427.949 336.18 428.16C337.18 429 334.71 433.51 334.6 433.72C332.25 437.96 331.08 440.07 329.41 441.32C327.23 442.94 324.31 443.45 318.47 444.47C314.65 445.13 314.12 444.92 312.26 445.67C311.67 445.91 310.93 446.26 305.5 450.59C301.38 453.86 299.32 455.5 298.27 456.43C297.91 456.74 297.27 457.31 296.32 458C295.71 458.45 295.45 458.6 294.39 459.33C292.79 460.45 292.98 460.38 292.61 460.6C292.022 461.008 291.354 461.285 290.65 461.413C289.946 461.541 289.223 461.516 288.53 461.34C288.073 461.169 287.658 460.902 287.313 460.557C286.968 460.212 286.701 459.797 286.53 459.34C286.427 458.816 286.441 458.275 286.571 457.756C286.7 457.238 286.942 456.754 287.28 456.34C288.482 454.764 290.186 453.646 292.11 453.17C297.11 451.56 296.68 448.17 302.3 444.46C308.71 440.22 317.6 439.04 318.71 438.9C318.71 438.9 324.51 438.13 326.31 435.56C326.636 435.039 326.996 434.542 327.39 434.07Z" fill="white" stroke="black" stroke-miterlimit="10"/>
</g>
<g id="human 2">
<path id="Vector_180" d="M189.59 155.77C191.01 155.61 191.96 154.16 193.39 151.96C195.52 148.69 195.51 146.73 196.48 144.59C198.89 139.29 203.77 140.69 209.09 135.08C210.21 133.9 215.2 128.62 214.32 122.71C213.32 115.92 205 112.36 203.62 111.77C191.71 106.66 174.41 111.85 164.15 122.56C164.15 122.56 150.22 137.11 149.15 170.97C148.99 176.08 147.72 181.11 147.48 186.21C147.541 188.362 147.049 190.493 146.05 192.4C143.89 196.13 140.3 196.34 140.34 198.11C140.39 200.16 145.22 202.72 149.39 201.76C153.56 200.8 155.39 196.83 156.11 195.45C157.029 193.703 157.493 191.753 157.46 189.78C157.34 189.78 157.46 194.28 154.61 197.87C150.85 202.65 145.22 202.42 145.33 203.87C145.47 205.48 153.17 207.81 157.7 204.34C159.039 203.221 160.072 201.779 160.7 200.15C162.167 196.834 162.782 193.204 162.49 189.59C163.582 193.026 163.411 196.738 162.01 200.06C159.08 206.73 151.01 207.35 151.35 209.65C151.54 210.81 153.59 210.9 165.94 212.92C168.405 213.403 170.947 213.327 173.38 212.7C174.82 212.31 182.23 210.29 185.32 203.87C186.66 201.09 186.52 196.94 186.51 188.64C186.51 181.03 185.78 180.87 186.51 177.24C187.35 172.87 189.04 169.68 187.51 167.95C186.51 166.88 185.51 167.66 183.23 166.52C180.45 165.14 179.12 162.52 178.23 160.81C177.09 158.59 175.97 156.4 176.56 153.68C176.99 151.68 178.49 148.63 180.61 148.45C184.11 148.09 186.05 156.17 189.59 155.77Z" fill="black" stroke="black" stroke-miterlimit="10"/>
<path id="Vector_181" d="M213.61 138.64C212.97 138.86 213.61 142.92 213.61 142.92C213.61 142.92 214.49 145.37 215.04 145.31C215.59 145.25 215.84 143.55 215.56 141.97C215.23 140.17 214.05 138.5 213.61 138.64Z" fill="black" stroke="black" stroke-miterlimit="10"/>
<path id="Vector_182" d="M210.11 157.99C210.574 158.518 211.097 158.991 211.67 159.4C213.018 160.476 214.685 161.074 216.41 161.1C217.499 161.076 218.567 160.799 219.53 160.29" stroke="black" stroke-miterlimit="10"/>
<path id="Vector_183" d="M216.67 133.74C217.251 133.579 217.848 133.482 218.45 133.45C220.212 133.285 221.977 133.73 223.45 134.71C224.314 135.322 225.032 136.119 225.551 137.043C226.07 137.966 226.377 138.993 226.45 140.05C226.61 143.93 223.26 146.11 223.12 146.2" stroke="black" stroke-miterlimit="10"/>
<path id="Vector_184" d="M192.94 149.54L226.39 136.12" stroke="black" stroke-miterlimit="10"/>
<path id="Vector_185" d="M185.77 168.91C187.77 169.56 186.37 174.69 188.48 187.24C191.08 202.67 194.86 204.78 196.66 205.24C198.07 205.57 199.71 205.18 199.83 205.66C200.01 206.34 196.83 207.85 194.33 208.66C192.46 209.27 187.33 210.92 183.44 209.6C176.05 207.11 172.98 194.24 175.02 184.53C176.85 175.75 183.11 168.04 185.77 168.91Z" fill="black" stroke="black" stroke-miterlimit="10"/>
</g>
</g>
</svg>
